<?xml version="1.0" standalone="no"?>
<!DOCTYPE svg PUBLIC "-//W3C//DTD SVG 20010904//EN"
 "http://www.w3.org/TR/2001/REC-SVG-20010904/DTD/svg10.dtd">
<svg version="1.0" xmlns="http://www.w3.org/2000/svg"
 width="576.000000pt" height="576.000000pt" viewBox="0 0 576.000000 576.000000"
 preserveAspectRatio="xMidYMid meet">
<metadata>
Created by potrace 1.14, written by Peter Selinger 2001-2017
</metadata>
<g transform="translate(0.000000,576.000000) scale(0.100000,-0.100000)"
fill="#000000" stroke="none">
<path d="M0 5150 c0 -539 4 -652 22 -600 2 6 16 6 41 -1 27 -7 37 -15 33 -25
-4 -10 2 -14 18 -14 12 0 31 -9 42 -21 15 -17 16 -22 4 -29 -17 -10 -30 -4
-30 14 0 8 -18 16 -42 20 -24 4 -53 9 -65 13 l-23 5 0 -1945 0 -1946 23 -18
c26 -21 37 -43 43 -93 5 -33 24 -68 24 -43 0 7 14 10 35 9 25 -2 43 3 63 20
l27 24 -27 0 c-36 0 -55 21 -73 82 -17 57 -8 84 27 90 26 4 97 -40 98 -59 0
-7 8 -13 18 -13 22 0 47 -28 56 -65 4 -15 17 -35 28 -45 12 -9 27 -35 33 -56
9 -32 15 -39 35 -36 12 1 33 13 46 27 31 33 75 33 100 0 14 -18 28 -25 54 -25
19 -1 51 -9 70 -18 l35 -17 -4 -83 -3 -82 43 1 c72 2 93 11 99 44 6 33 32 44
56 24 8 -7 24 -31 35 -53 19 -39 19 -39 14 -9 -6 28 -1 37 29 68 19 19 38 35
41 35 2 0 16 -18 30 -40 18 -28 23 -48 19 -65 -4 -18 -1 -32 11 -45 10 -11 18
-32 19 -47 1 -20 9 -32 28 -41 19 -9 31 -26 39 -53 12 -40 13 -40 58 -37 41 3
47 6 66 43 22 43 21 43 112 29 43 -6 81 -43 67 -65 -4 -7 1 -7 15 0 11 7 21
19 21 28 0 13 3 13 15 3 8 -7 15 -19 15 -26 0 -21 63 -18 80 4 17 21 40 59 40
67 0 3 -7 5 -15 5 -18 0 -9 28 17 53 20 20 24 37 8 37 -7 0 -10 41 -9 109 0
61 -2 114 -5 119 -6 11 24 126 35 130 4 2 6 9 3 15 -2 7 5 30 16 52 11 21 20
45 20 52 0 7 5 13 11 13 8 0 8 4 0 14 -9 11 -6 17 18 27 16 7 27 17 24 22 -2
4 -12 2 -20 -5 -13 -10 -18 -9 -33 10 -10 12 -26 22 -35 22 -12 0 -14 4 -7 17
8 13 4 21 -15 36 -16 13 -23 26 -19 39 2 11 2 26 -1 34 -4 12 -8 12 -25 0 -10
-8 -28 -12 -39 -9 -22 6 -26 33 -4 33 8 0 15 6 15 14 0 8 8 17 18 19 16 4 16
5 0 6 -21 1 -22 5 -8 32 6 10 18 19 26 19 10 0 14 6 11 14 -3 7 0 19 6 25 6 6
7 12 1 12 -5 1 -15 2 -21 3 -7 0 -12 6 -10 11 1 6 8 9 14 9 13 -2 19 25 28
120 7 89 15 124 31 137 8 6 14 18 14 25 0 8 6 14 13 14 8 0 20 11 27 25 9 17
17 22 24 15 5 -5 25 -10 44 -10 31 0 34 2 28 22 -14 47 -14 58 -4 64 7 4 8 2
4 -4 -5 -8 0 -12 12 -12 19 0 96 -66 203 -172 52 -51 77 -88 59 -88 -5 0 -10
-8 -11 -17 0 -11 -3 -13 -6 -5 -3 7 -12 -2 -23 -22 -18 -37 -19 -75 -5 -240 4
-58 2 -92 -9 -125 -22 -69 -39 -178 -32 -212 3 -17 2 -74 -4 -127 -5 -53 -11
-130 -13 -171 l-5 -75 59 -60 c33 -34 59 -67 59 -74 0 -7 4 -20 9 -30 5 -9 12
-25 15 -34 4 -15 17 -18 71 -18 37 0 64 4 61 9 -3 5 1 14 9 21 10 8 13 23 10
41 -7 40 10 69 40 69 34 0 40 16 13 34 -23 15 -78 11 -78 -5 0 -5 -7 -9 -15
-9 -17 0 -19 21 -6 68 11 37 4 39 -40 16 -28 -14 -30 -19 -25 -49 9 -45 -16
-60 -59 -35 -22 12 -31 25 -33 48 -2 24 -11 36 -33 47 -42 22 -36 35 17 35 40
0 45 2 39 18 -4 9 -9 34 -12 55 -6 43 2 46 50 20 18 -10 52 -18 77 -18 37 0
47 -4 55 -23 6 -14 16 -21 25 -18 89 30 99 31 129 8 16 -11 41 -24 55 -28 14
-3 26 -11 26 -16 0 -5 12 4 26 21 16 19 35 31 50 31 30 0 30 -9 0 -69 -14 -26
-27 -66 -30 -87 -3 -21 -7 -52 -10 -69 -3 -16 -8 -49 -11 -72 l-5 -43 1605 0
1605 0 0 554 0 554 -25 16 c-14 9 -50 50 -80 90 -49 66 -60 76 -110 93 -54 18
-56 20 -125 128 -39 61 -85 139 -102 175 -16 36 -34 67 -38 70 -4 3 -19 23
-34 44 -29 43 -36 92 -11 83 11 -5 12 -1 5 19 -6 14 -10 38 -10 54 0 16 -4 32
-10 35 -5 3 -10 -2 -10 -11 0 -17 -1 -16 -13 1 -8 10 -19 15 -24 12 -6 -4 -18
8 -26 26 l-16 32 37 22 c20 13 45 23 56 23 13 0 16 5 12 16 -4 9 -1 23 5 30 8
9 8 14 1 14 -6 0 -26 14 -44 30 -18 17 -40 30 -50 30 -46 0 -62 12 -78 59 -7
22 -18 39 -23 38 -7 -1 -10 13 -9 33 2 37 -20 76 -36 66 -6 -3 -8 -15 -5 -26
3 -12 0 -20 -7 -20 -9 0 -9 -4 -2 -13 8 -9 0 -11 -38 -9 -29 2 -71 -3 -100
-13 -31 -10 -55 -14 -61 -8 -13 13 -59 133 -50 133 13 0 15 207 12 1248 -1
249 0 456 1 460 2 4 3 233 3 510 -1 277 2 505 5 507 3 2 3 41 -2 86 -4 46 -4
97 1 113 4 17 6 40 4 51 -4 28 -4 112 0 225 5 131 4 128 30 133 18 3 16 5 -8
7 -30 2 -30 2 -5 10 l25 8 -25 1 c-20 1 -22 3 -10 11 10 6 -81 10 -267 10
l-283 0 0 -65 c0 -77 6 -78 -119 11 l-76 54 -2012 0 -2013 0 0 -610z m4216
417 c3 -3 4 -23 2 -45 l-3 -41 -49 49 -48 50 46 -4 c26 -2 49 -6 52 -9z
m-3979 -1149 c-3 -8 -6 -5 -6 6 -1 11 2 17 5 13 3 -3 4 -12 1 -19z m0 -50 c-3
-8 -6 -5 -6 6 -1 11 2 17 5 13 3 -3 4 -12 1 -19z m3409 -201 c52 -27 135 -92
164 -129 30 -40 48 -82 70 -169 19 -72 21 -101 16 -199 -3 -63 -2 -107 2 -97
7 17 9 16 29 -5 12 -13 57 -84 102 -158 44 -74 88 -148 98 -165 14 -22 28 -31
61 -37 74 -12 222 -72 222 -89 0 -4 -21 -1 -47 7 -25 8 -56 14 -67 13 -12 0 9
-9 45 -18 36 -10 71 -21 77 -25 6 -4 22 -42 36 -84 24 -76 47 -141 121 -337
20 -55 91 -213 156 -351 65 -139 119 -256 118 -260 0 -11 -314 -212 -544 -350
-93 -55 -294 -175 -445 -265 -240 -144 -595 -335 -655 -353 -18 -5 -24 3 -45
60 -29 77 -66 125 -115 148 -35 17 -37 17 -105 -15 -39 -18 -75 -38 -81 -45
-6 -8 -16 -14 -22 -14 -10 0 32 41 207 203 158 146 212 199 194 190 -17 -8
-131 -110 -283 -254 -298 -281 -497 -419 -583 -405 -47 7 -60 21 -149 155 -62
94 -103 142 -222 256 -306 295 -410 403 -478 495 -38 52 -76 106 -83 119 l-12
24 48 -8 c27 -4 64 -13 83 -21 19 -8 36 -12 38 -10 11 10 -58 35 -127 45 -100
15 -180 38 -208 60 l-23 17 30 75 c30 76 55 181 65 274 3 28 -5 1 -19 -59 -23
-102 -30 -125 -38 -115 -2 2 -26 72 -54 154 -28 83 -57 168 -66 190 -8 22 -14
41 -13 43 2 1 29 -7 60 -19 46 -18 60 -20 79 -10 15 8 16 10 3 6 -25 -7 -80
11 -131 42 -41 26 -75 84 -75 129 0 18 48 64 67 64 4 0 22 -23 38 -51 33 -56
97 -119 120 -119 12 0 13 4 5 19 -13 25 -13 51 0 51 5 0 21 -12 35 -27 l25
-28 -1 48 c-1 26 -6 50 -11 53 -4 3 -5 -2 -2 -10 12 -32 -5 -15 -30 30 -18 32
-21 44 -11 40 19 -7 19 4 -1 32 -8 12 -12 22 -9 22 11 0 -52 84 -86 115 -26
23 -29 25 -14 5 11 -13 32 -38 47 -55 40 -43 37 -55 -11 -44 -52 12 -114 -10
-162 -57 l-36 -35 -44 49 c-134 148 -226 278 -216 306 6 16 89 36 148 36 52 0
48 17 -12 47 -75 38 -92 38 -132 3 -19 -17 -37 -27 -40 -23 -17 29 -98 254
-138 383 -32 104 -64 275 -53 291 3 6 34 -36 68 -93 93 -156 142 -231 235
-363 46 -66 95 -135 108 -154 13 -19 23 -31 23 -28 0 6 -91 195 -115 238 -12
22 -75 178 -75 186 0 1 19 -18 42 -44 86 -92 567 -492 555 -459 -4 9 -28 49
-55 88 -27 40 -68 107 -92 148 -24 41 -60 100 -80 130 -21 30 -41 66 -45 79
-7 24 2 16 153 -147 49 -53 54 -49 14 11 -16 23 -50 80 -77 127 -26 47 -60
105 -75 130 -77 127 -215 394 -198 384 7 -4 61 -46 119 -93 58 -47 157 -122
218 -166 62 -44 141 -101 176 -127 l64 -48 -13 -37 c-19 -55 -28 -113 -18
-113 5 0 19 12 33 26 38 41 77 58 97 42 15 -12 16 -11 3 5 -13 16 -12 20 9 35
44 33 152 92 167 92 15 0 116 -52 141 -72 29 -25 8 6 -33 48 -25 24 -45 48
-45 52 0 5 52 25 115 45 133 43 122 45 246 -44 38 -27 69 -47 69 -44 0 2 -20
33 -45 68 -25 36 -45 67 -45 71 0 3 15 10 33 15 32 9 32 9 -13 10 l-45 1 -61
93 c-34 50 -60 94 -58 96 6 6 256 -120 348 -176 107 -66 149 -99 234 -183 35
-34 66 -60 68 -57 3 3 -5 22 -19 44 -50 79 -138 236 -134 239 7 7 243 -119
336 -180 168 -111 212 -160 299 -331 32 -62 42 -76 48 -61 4 10 4 97 0 195 -6
151 -5 172 7 151 7 -14 26 -47 42 -75 15 -27 35 -63 43 -78 8 -16 16 -26 18
-24 2 2 -8 68 -23 145 -24 130 -26 147 -14 194 29 115 88 205 163 247 57 33
71 31 174 -22z m-1931 -104 c157 -46 315 -107 315 -121 0 -6 -54 -20 -121 -33
l-121 -23 -56 60 c-32 32 -75 79 -96 103 l-39 43 34 -7 c19 -4 57 -14 84 -22z
m-77 -180 l63 -29 -83 -42 -83 -42 -59 63 c-61 65 -166 192 -166 201 0 3 60
-23 133 -59 72 -35 160 -76 195 -92z m-1161 -540 c-3 -10 -5 -4 -5 12 0 17 2
24 5 18 2 -7 2 -21 0 -30z m405 -461 c32 -63 34 -72 18 -72 -10 0 -21 7 -24
16 -3 8 -10 12 -16 9 -5 -3 -10 0 -10 7 0 10 -2 10 -9 -1 -8 -13 -14 16 -27
129 l-5 45 18 -31 c10 -17 35 -63 55 -102z m73 53 c22 -27 48 -59 57 -69 20
-22 23 -36 8 -36 -5 0 -10 7 -10 15 0 8 -6 12 -14 9 -8 -3 -17 -1 -21 5 -12
21 -25 11 -19 -15 4 -17 2 -29 -7 -35 -10 -6 -17 8 -31 64 -18 76 -23 137 -10
122 4 -6 26 -32 47 -60z m-185 -37 c0 -4 -6 -8 -14 -8 -9 0 -13 10 -12 25 1
23 2 24 14 8 6 -9 12 -20 12 -25z m400 -369 c0 -6 -4 -7 -10 -4 -5 3 -10 11
-10 16 0 6 5 7 10 4 6 -3 10 -11 10 -16z m17 -51 c-3 -8 -6 -5 -6 6 -1 11 2
17 5 13 3 -3 4 -12 1 -19z m10 -50 c-3 -8 -6 -5 -6 6 -1 11 2 17 5 13 3 -3 4
-12 1 -19z m-527 -28 c0 -5 -4 -10 -10 -10 -5 0 -10 5 -10 10 0 6 5 10 10 10
6 0 10 -4 10 -10z m559 -50 c0 -9 -4 -8 -9 5 -5 11 -9 27 -9 35 0 9 4 8 9 -5
5 -11 9 -27 9 -35z m-595 -448 c-16 -13 -17 -14 -1 -9 23 9 22 -8 -4 -34 -20
-20 -21 -20 -34 -2 -8 10 -15 24 -15 31 0 6 -6 12 -12 12 -7 1 1 7 17 14 17 7
39 10 49 8 19 -5 19 -5 0 -20z m766 -183 c0 -6 -7 -12 -16 -16 -20 -8 -46 19
-38 40 5 15 8 15 30 0 13 -8 24 -19 24 -24z m435 -217 c-6 -6 -34 11 -39 24
-4 11 0 10 18 -3 13 -10 23 -19 21 -21z m1174 -221 c10 -7 8 -9 -10 -8 -13 0
-33 -3 -44 -7 -13 -5 -11 -2 5 8 30 18 31 18 49 7z m-134 -71 c3 -6 -1 -7 -9
-4 -10 4 -16 1 -16 -7 0 -7 -3 -10 -6 -6 -7 7 4 27 16 27 5 0 12 -4 15 -10z
m-725 -14 c0 -3 -4 -8 -10 -11 -5 -3 -10 -1 -10 4 0 6 5 11 10 11 6 0 10 -2
10 -4z m557 -91 c0 -8 -4 -12 -7 -10 -4 3 -25 -9 -46 -26 -41 -32 -87 -60 -69
-41 9 9 117 92 121 92 0 0 1 -7 1 -15z m-1683 -176 c-3 -5 -10 -7 -15 -3 -5 3
-7 10 -3 15 3 5 10 7 15 3 5 -3 7 -10 3 -15z m1393 5 c-3 -3 -12 -4 -19 -1 -8
3 -5 6 6 6 11 1 17 -2 13 -5z m-862 -468 c27 -36 27 -40 -13 -111 -9 -16 -17
-48 -19 -69 -3 -45 -18 -67 -40 -59 -11 4 -11 8 -3 13 9 6 9 13 0 30 -9 16 -9
33 -2 64 6 22 11 48 11 56 1 18 11 80 16 98 7 20 23 14 50 -22z m-45 -301 c0
-8 -4 -15 -10 -15 -5 0 -10 7 -10 15 0 8 5 15 10 15 6 0 10 -7 10 -15z"/>
<path d="M3528 4143 c-19 -22 -43 -70 -52 -103 -4 -14 7 0 23 31 47 89 48 89
151 38 111 -55 120 -47 11 10 -87 45 -111 49 -133 24z"/>
<path d="M3750 4059 c0 -4 9 -26 20 -50 11 -24 20 -36 20 -27 0 10 -9 32 -20
50 -11 18 -20 30 -20 27z"/>
<path d="M3483 4013 c-18 -3 -24 -17 -37 -73 -9 -38 -16 -82 -15 -97 1 -20 4
-15 10 17 18 99 28 119 65 135 42 17 58 11 103 -41 18 -20 35 -33 38 -30 3 3
-14 26 -39 51 -46 45 -62 50 -125 38z"/>
<path d="M3422 3770 c0 -26 2 -38 6 -27 6 13 11 5 25 -32 16 -47 92 -131 118
-131 7 0 -9 19 -33 43 -47 43 -70 81 -82 130 -4 15 -11 25 -16 22 -5 -3 -11 5
-13 17 -2 13 -5 3 -5 -22z"/>
<path d="M3680 3795 c0 -4 11 -21 25 -39 13 -17 31 -47 39 -66 11 -25 15 -29
16 -14 0 11 -13 41 -29 66 -27 42 -51 67 -51 53z"/>
<path d="M2058 3703 c6 -2 18 -2 25 0 6 3 1 5 -13 5 -14 0 -19 -2 -12 -5z"/>
<path d="M1825 3645 c-17 -7 -50 -31 -74 -52 -41 -37 -43 -41 -33 -68 l10 -30
1 31 c1 37 19 54 102 99 61 33 57 48 -6 20z"/>
<path d="M3763 3615 c0 -22 2 -30 4 -17 2 12 2 30 0 40 -3 9 -5 -1 -4 -23z"/>
<path d="M3510 3570 c0 -5 4 -10 9 -10 5 0 23 -12 40 -26 30 -25 31 -29 32
-112 1 -73 3 -81 10 -47 12 58 11 110 -3 140 -12 27 -88 74 -88 55z"/>
<path d="M2289 3530 c-203 -68 -422 -177 -493 -244 -23 -21 -33 -32 -22 -25
18 13 18 12 10 -21 -5 -19 -8 -50 -7 -69 2 -35 13 -54 20 -34 13 36 87 112
152 154 40 27 77 49 81 49 4 0 10 -18 14 -40 7 -44 52 -102 97 -126 29 -15 78
-18 116 -8 l22 6 -20 27 c-21 28 -18 55 7 65 22 8 43 -4 58 -32 l14 -26 21 34
c29 49 35 106 16 159 -8 24 -21 51 -27 58 -16 20 0 28 79 43 58 11 78 30 32
30 -10 0 -19 7 -19 15 0 23 -54 18 -151 -15z"/>
<path d="M3878 3500 c-12 -83 -10 -189 3 -168 5 10 8 64 7 120 -3 94 -4 98
-10 48z"/>
<path d="M1714 3465 c-3 -14 -2 -46 4 -72 l10 -48 1 73 c1 74 -4 91 -15 47z"/>
<path d="M3766 3435 c-3 -9 -6 -29 -6 -45 0 -28 -18 -40 -82 -54 -33 -7 -46
-29 -53 -87 l-5 -44 18 55 c17 51 21 55 61 67 58 17 68 27 76 74 7 42 2 62 -9
34z"/>
<path d="M1950 3430 c-8 -5 -10 -10 -5 -10 6 0 17 5 25 10 8 5 11 10 5 10 -5
0 -17 -5 -25 -10z"/>
<path d="M2492 3410 c0 -14 2 -19 5 -12 2 6 2 18 0 25 -3 6 -5 1 -5 -13z"/>
<path d="M1820 3350 c-14 -11 -20 -20 -14 -20 6 0 19 9 29 20 23 25 17 25 -15
0z"/>
<path d="M2446 3293 c-6 -14 -5 -15 5 -6 7 7 10 15 7 18 -3 3 -9 -2 -12 -12z"/>
<path d="M2354 3208 l-19 -23 23 19 c21 18 27 26 19 26 -2 0 -12 -10 -23 -22z"/>
<path d="M1018 3202 c13 -9 49 -37 80 -61 84 -65 90 -68 57 -32 -35 38 -111
95 -140 104 -17 6 -17 4 3 -11z"/>
<path d="M3872 3195 c-4 -55 -23 -105 -54 -141 -34 -38 -178 -158 -183 -152
-2 2 -8 26 -14 53 -10 47 -10 45 -5 -25 3 -41 8 -91 11 -110 3 -19 15 -123 28
-230 15 -129 23 -175 24 -135 0 33 -8 132 -19 219 -11 88 -20 170 -20 183 0
17 27 45 105 109 116 96 140 134 132 215 -2 29 -4 34 -5 14z"/>
<path d="M940 3149 c-6 -11 -10 -27 -8 -36 2 -9 9 -1 19 21 17 38 8 51 -11 15z"/>
<path d="M1021 3156 c5 -5 99 -69 117 -80 6 -4 12 -3 12 2 0 13 -101 82 -119
82 -8 0 -12 -2 -10 -4z"/>
<path d="M2028 3073 c18 -2 45 -2 60 0 15 2 0 4 -33 4 -33 0 -45 -2 -27 -4z"/>
<path d="M1095 2974 c-16 -8 -21 -11 -10 -8 11 4 47 10 80 14 l60 7 -50 1
c-27 1 -63 -6 -80 -14z"/>
<path d="M1040 2949 c0 -5 5 -7 10 -4 6 3 10 8 10 11 0 2 -4 4 -10 4 -5 0 -10
-5 -10 -11z"/>
<path d="M3797 2910 c-8 -33 -12 -159 -4 -166 7 -7 21 160 15 178 -3 7 -7 2
-11 -12z"/>
<path d="M3782 2680 c0 -14 2 -19 5 -12 2 6 2 18 0 25 -3 6 -5 1 -5 -13z"/>
<path d="M1335 2658 l-30 -19 29 7 c24 6 27 4 23 -12 -3 -11 -8 -44 -11 -74
l-5 -55 15 65 c8 36 13 74 12 86 -3 21 -3 21 -33 2z"/>
<path d="M3773 2595 c0 -27 2 -38 4 -22 2 15 2 37 0 50 -2 12 -4 0 -4 -28z"/>
<path d="M3661 2285 c-7 -33 -44 -120 -82 -194 -38 -73 -69 -136 -69 -139 0
-14 52 71 101 164 47 90 51 95 45 57 -16 -111 -17 -128 -8 -113 17 26 34 152
30 220 l-3 65 -14 -60z"/>
<path d="M2495 2012 c-22 -10 -86 -31 -142 -47 -56 -15 -100 -32 -97 -36 7
-11 -166 -112 -273 -159 -94 -42 -119 -43 -132 -7 -8 20 -8 20 -29 -1 -29 -29
-28 -40 3 -48 47 -12 143 -82 182 -133 21 -27 46 -50 56 -50 49 -2 243 133
325 226 127 144 203 274 160 273 -7 0 -31 -9 -53 -18z m15 -52 c0 -16 -4 -30
-10 -30 -5 0 -10 -7 -10 -15 0 -8 -5 -15 -10 -15 -6 0 -14 -10 -19 -22 -18
-45 -196 -228 -221 -228 -4 0 -22 -13 -41 -29 -19 -17 -41 -32 -51 -34 -25 -7
-15 40 35 153 25 58 106 161 120 153 5 -3 7 -2 4 4 -10 16 53 56 118 74 83 23
85 23 85 -11z"/>
<path d="M2147 1903 c-37 -14 -66 -27 -64 -30 2 -2 40 10 83 26 43 17 72 30
64 30 -8 0 -46 -12 -83 -26z"/>
<path d="M3743 1860 c0 -41 2 -58 4 -37 2 20 2 54 0 75 -2 20 -4 3 -4 -38z"/>
<path d="M2010 1850 c-8 -5 -10 -10 -5 -10 6 0 17 5 25 10 8 5 11 10 5 10 -5
0 -17 -5 -25 -10z"/>
<path d="M1915 1810 c-3 -6 1 -7 9 -4 18 7 21 14 7 14 -6 0 -13 -4 -16 -10z"/>
<path d="M3731 1659 c0 -57 4 -122 9 -144 6 -26 7 10 3 100 -3 77 -7 142 -9
144 -2 2 -4 -43 -3 -100z"/>
<path d="M2261 1509 c-33 -23 -66 -39 -83 -39 -15 0 -28 -4 -28 -10 0 -28 79
3 135 53 52 47 44 45 -24 -4z"/>
<path d="M831 2940 c0 -8 4 -22 9 -30 12 -18 12 -2 0 25 -6 13 -9 15 -9 5z"/>
<path d="M925 2920 c-3 -5 -1 -10 4 -10 6 0 11 5 11 10 0 6 -2 10 -4 10 -3 0
-8 -4 -11 -10z"/>
<path d="M5068 3704 c-31 -16 -32 -21 -17 -61 6 -15 10 -30 9 -32 -1 -2 6 -9
16 -14 13 -8 22 -5 35 12 17 21 36 88 28 95 -14 13 -48 13 -71 0z"/>
<path d="M5000 3565 c0 -19 2 -35 5 -35 10 0 24 40 19 54 -11 28 -24 17 -24
-19z"/>
<path d="M5296 2975 c-9 -24 5 -41 16 -20 7 11 7 20 0 27 -6 6 -12 3 -16 -7z"/>
<path d="M4997 2918 c-3 -18 -1 -37 4 -42 5 -6 9 7 9 32 0 50 -6 54 -13 10z"/>
<path d="M4997 2840 c-5 -18 -4 -44 1 -182 1 -21 5 -38 10 -38 4 0 16 29 28
64 19 57 19 64 5 73 -11 7 -16 25 -16 53 0 45 -19 65 -28 30z"/>
<path d="M4998 2548 c-2 -7 -1 -26 3 -43 7 -31 8 -30 15 23 4 31 -9 45 -18 20z"/>
<path d="M4998 2385 c-3 -14 -1 -28 3 -31 5 -3 9 1 9 10 0 8 3 21 6 30 3 9 2
16 -4 16 -5 0 -12 -11 -14 -25z"/>
<path d="M1855 1440 c-3 -5 -1 -10 4 -10 6 0 11 5 11 10 0 6 -2 10 -4 10 -3 0
-8 -4 -11 -10z"/>
<path d="M1960 1236 c0 -2 9 -6 20 -9 11 -3 20 -1 20 4 0 5 -9 9 -20 9 -11 0
-20 -2 -20 -4z"/>
<path d="M1954 1201 c7 -11 56 -21 56 -11 0 9 -25 20 -46 20 -9 0 -13 -4 -10
-9z"/>
<path d="M1929 1133 c-20 -3 -27 -13 -37 -50 -10 -38 -16 -44 -32 -40 -23 6
-27 -8 -5 -17 17 -6 21 -91 5 -101 -6 -4 -10 7 -10 24 0 17 -5 31 -10 31 -5 0
-9 -6 -7 -12 1 -7 -8 -14 -20 -16 -13 -2 -24 -10 -24 -18 -1 -8 -2 -20 -3 -26
-1 -7 -9 -16 -18 -20 -10 -4 -18 -13 -17 -20 0 -10 2 -10 6 0 6 15 67 16 94 1
16 -8 25 -7 38 5 10 9 21 13 24 9 4 -3 7 6 7 21 0 15 4 25 9 21 6 -3 13 11 16
32 4 21 13 62 20 92 10 37 11 60 4 73 -5 10 -11 17 -12 17 -1 -1 -13 -4 -28
-6z m21 -17 c0 -3 -4 -8 -10 -11 -5 -3 -10 -1 -10 4 0 6 5 11 10 11 6 0 10 -2
10 -4z"/>
<path d="M1845 1081 c-7 -12 12 -24 25 -16 11 7 4 25 -10 25 -5 0 -11 -4 -15
-9z"/>
<path d="M1693 923 c-7 -3 -13 -14 -13 -26 0 -21 0 -21 16 1 17 25 16 32 -3
25z"/>
<path d="M1727 913 c-10 -9 -8 -33 2 -33 5 0 11 9 14 20 5 20 -3 26 -16 13z"/>
<path d="M250 415 c0 -9 -5 -13 -11 -9 -6 3 -3 -5 6 -20 10 -14 24 -26 31 -26
32 0 5 -115 -29 -124 -23 -6 -72 17 -84 39 -14 23 -57 24 -61 0 -2 -11 -23
-38 -47 -61 -43 -40 -44 -41 -51 -127 l-7 -87 312 0 c304 0 311 0 311 20 0 20
14 25 53 22 17 -2 18 4 13 45 -8 62 -24 100 -53 129 -13 13 -23 29 -23 36 0 8
-22 19 -53 26 -68 16 -82 15 -97 -3 -14 -17 -65 -20 -75 -5 -3 5 2 22 12 37
10 15 12 24 6 20 -7 -5 -13 -4 -13 1 0 5 -9 12 -20 15 -14 3 -20 14 -20 31 0
16 -6 26 -14 26 -8 0 -16 4 -18 9 -1 5 -18 12 -35 16 -27 5 -33 3 -33 -10z"/>
<path d="M0 269 c0 -11 4 -17 10 -14 13 8 13 35 0 35 -5 0 -10 -9 -10 -21z"/>
<path d="M2551 233 c7 -12 15 -20 18 -17 3 2 -3 12 -13 22 -17 16 -18 16 -5
-5z"/>
<path d="M967 193 c-4 -3 -7 -15 -7 -25 0 -13 -10 -20 -30 -24 -16 -4 -34 -11
-38 -18 -11 -13 -26 -103 -16 -94 3 4 13 1 21 -7 13 -13 66 -15 78 -3 6 6 15
69 19 131 3 44 -8 60 -27 40z"/>
<path d="M810 126 c-6 -8 -18 -12 -26 -9 -10 4 -12 0 -8 -11 3 -9 13 -16 21
-16 8 0 11 -4 8 -10 -3 -5 -2 -10 3 -10 5 0 13 -10 19 -22 l10 -23 13 25 c20
36 21 52 3 72 -20 22 -27 22 -43 4z"/>
</g>
</svg>
